# xmcd
#
# Track frame offsets:
# 150
# 35993
# 56525
# 76299
# 111003
# 136459
#
# Disc length: 2305 seconds
#
#
# Revision: 0
# Processed by: cddbd v1.5.1PL2 Copyright (c) Steve Scherf et al.
# Submitted via: FreeRIP 2.92 
#
DISCID=4e08ff06
DTITLE=Moonshine - s-t
DYEAR=2005
DGENRE=Slow Rock
TTITLE0=Baby Elephant Stomp
TTITLE1=White Smoker
TTITLE2=Happy Ending
TTITLE3=Thrice
TTITLE4=Dead Ringer
TTITLE5=While Supplies Last
EXTD=ripped/spread by cleve
EXTT0=
EXTT1=
EXTT2=
EXTT3=
EXTT4=
EXTT5=
PLAYORDER=
